<?xml version="1.0" encoding="utf-8"?>
<!-- Generator: Adobe Illustrator 26.3.1, SVG Export Plug-In . SVG Version: 6.00 Build 0)  -->
<svg version="1.1" id="Capa_1" xmlns="http://www.w3.org/2000/svg" xmlns:xlink="http://www.w3.org/1999/xlink" x="0px" y="0px"
	 viewBox="0 0 1000 1000" style="enable-background:new 0 0 1000 1000;" xml:space="preserve">
<style type="text/css">
	.st0{fill:#D0D0D0;}
	.st1{fill:#FFFFFF;}
</style>
<rect class="st0" width="1000" height="1000"/>
<g>
	<path class="st1" d="M575.61,652.72c-2.41,0-4.82-0.48-7.23-0.96L354,594.43c-14.93-3.85-23.61-19.27-19.75-34.21l27.46-100.69
		c0.96-3.85,4.82-5.78,8.67-4.82c3.85,0.96,5.78,4.82,4.82,8.67l-26.98,100.69c-1.93,7.23,2.41,14.93,9.64,16.86l214.39,57.33
		c7.23,1.93,14.93-2.41,16.86-9.64l10.6-39.99c0.96-3.85,4.82-5.78,8.67-4.82c3.85,0.96,5.78,4.82,4.82,8.67l0,0l-10.6,39.99
		C599.22,644.53,588.14,652.72,575.61,652.72L575.61,652.72z"/>
	<path class="st1" d="M638.72,569.37H416.63c-15.42,0-27.94-12.53-27.94-27.94V375.22c0-15.42,12.53-27.94,27.94-27.94h222.09
		c15.42,0,27.94,12.53,27.94,27.94v166.21C666.67,556.85,654.14,569.37,638.72,569.37z M416.63,361.25
		c-7.71,0-13.97,6.26-13.97,13.97v166.21c0,7.71,6.26,13.97,13.97,13.97h222.09c7.71,0,13.97-6.26,13.97-13.97V375.22
		c0-7.71-6.26-13.97-13.97-13.97H416.63z"/>
	<path class="st1" d="M458.54,444.6c-15.42,0-27.94-12.53-27.94-27.94c0-15.42,12.53-27.94,27.94-27.94s27.94,12.53,27.94,27.94l0,0
		C486,432.07,473.96,444.6,458.54,444.6z M458.54,402.68c-7.71,0-13.97,6.26-13.97,13.97s6.26,13.97,13.97,13.97
		c7.71,0,13.97-6.26,13.97-13.97l0,0C472.51,408.95,466.25,403.16,458.54,402.68z"/>
	<path class="st1" d="M396.88,554.44c-3.85,0-6.74-2.89-6.74-6.74c0-1.93,0.96-3.37,1.93-4.82l65.52-65.52
		c8.19-7.71,21.2-7.71,29.39,0l19.27,19.27l53.96-64.56c3.85-4.82,9.64-7.23,15.9-7.71l0,0c6.26,0,12.04,2.41,15.9,7.23l72.75,84.79
		c2.41,2.89,2.41,7.23-0.48,9.64c-2.89,2.41-7.23,2.41-9.64-0.48l-73.23-84.79c-1.45-1.45-3.37-2.41-5.3-2.41
		c-1.93,0-3.85,0.96-5.3,2.41l-58.78,70.82c-1.45,1.45-2.89,2.41-4.82,2.41c-1.93,0-3.85-0.48-5.3-1.93l-25.05-25.05
		c-2.89-2.41-7.23-2.41-9.64,0l-65.52,65.52C400.73,553.96,398.8,554.44,396.88,554.44z"/>
</g>
</svg>
